<svg width="25" height="25" viewBox="0 0 25 25" fill="none" xmlns="http://www.w3.org/2000/svg">
<rect width="25" height="25" fill="#1E1E1E"/>
<g id="Desktop - 5">
<rect width="1440" height="2528" transform="translate(-373 -1054)" fill="white"/>
<g id="Frame 53">
<g id="Frame 50">
<g id="Frame 47">
<g id="Frame 46">
<g id="Frame 31">
<g id="Frame 16">
<rect width="112" height="42" transform="translate(-62 -8.5)" fill="black"/>
<g id="solar:bag-heart-bold">
<path id="Vector" fill-rule="evenodd" clip-rule="evenodd" d="M8.74999 6.515V5.5C8.74999 4.50544 9.14508 3.55161 9.84834 2.84835C10.5516 2.14509 11.5054 1.75 12.5 1.75C13.4945 1.75 14.4484 2.14509 15.1516 2.84835C15.8549 3.55161 16.25 4.50544 16.25 5.5V6.515C17.537 6.554 18.325 6.692 18.926 7.191C19.759 7.883 19.979 9.053 20.418 11.394L21.168 15.394C21.785 18.686 22.093 20.332 21.194 21.416C20.294 22.5 18.619 22.5 15.27 22.5H9.72999C6.37999 22.5 4.70599 22.5 3.80599 21.416C2.90599 20.332 3.21599 18.686 3.83199 15.394L4.58199 11.394C5.02199 9.054 5.24099 7.883 6.07399 7.191C6.67499 6.692 7.46299 6.554 8.74999 6.515ZM10.25 5.5C10.25 4.90326 10.487 4.33097 10.909 3.90901C11.331 3.48705 11.9033 3.25 12.5 3.25C13.0967 3.25 13.669 3.48705 14.091 3.90901C14.5129 4.33097 14.75 4.90326 14.75 5.5V6.5H10.25V5.5ZM9.49999 13.697C9.49999 14.681 10.665 15.721 11.543 16.366C11.963 16.674 12.173 16.828 12.5 16.828C12.828 16.828 13.037 16.674 13.457 16.366C14.335 15.721 15.5 14.681 15.5 13.696C15.5 12.024 13.85 11.399 12.5 12.691C11.15 11.399 9.49999 12.023 9.49999 13.697Z" fill="white"/>
</g>
</g>
</g>
</g>
</g>
</g>
</g>
</g>
</svg>
