<svg width="30" height="31" viewBox="0 0 30 31" fill="none" xmlns="http://www.w3.org/2000/svg">
<path d="M4.6875 4.25C4.43886 4.25 4.2004 4.34877 4.02459 4.52459C3.84877 4.7004 3.75 4.93886 3.75 5.1875C3.75 5.43614 3.84877 5.6746 4.02459 5.85041C4.2004 6.02623 4.43886 6.125 4.6875 6.125H5.14875C5.35232 6.12535 5.55025 6.19196 5.71261 6.31475C5.87498 6.43754 5.99297 6.60984 6.04875 6.80562L9.0225 17.2119C9.19069 17.7991 9.54551 18.3157 10.0333 18.6834C10.5211 19.0511 11.1154 19.25 11.7263 19.25H20.2931C20.8553 19.2501 21.4047 19.0817 21.8702 18.7665C22.3358 18.4514 22.6962 18.0039 22.905 17.4819L25.6687 10.5706C25.7824 10.2862 25.8246 9.97835 25.7917 9.67387C25.7589 9.36939 25.652 9.07759 25.4803 8.82399C25.3086 8.57038 25.0775 8.36267 24.807 8.21904C24.5365 8.0754 24.235 8.00019 23.9288 8H8.34L7.85062 6.29C7.68286 5.7027 7.32847 5.18597 6.84101 4.81793C6.35356 4.44989 5.75954 4.25053 5.14875 4.25H4.6875ZM10.8263 16.6944L8.87625 9.875H23.9288L21.1631 16.7863C21.0935 16.96 20.9734 17.109 20.8183 17.2139C20.6633 17.3189 20.4804 17.375 20.2931 17.375H11.7263C11.5227 17.3746 11.3248 17.308 11.1624 17.1853C11 17.0625 10.882 16.8902 10.8263 16.6944ZM12.1875 26.75C12.5568 26.75 12.9226 26.6773 13.2638 26.5359C13.605 26.3946 13.9151 26.1874 14.1762 25.9262C14.4374 25.6651 14.6446 25.355 14.7859 25.0138C14.9273 24.6726 15 24.3068 15 23.9375C15 23.5682 14.9273 23.2024 14.7859 22.8612C14.6446 22.52 14.4374 22.2099 14.1762 21.9488C13.9151 21.6876 13.605 21.4804 13.2638 21.3391C12.9226 21.1977 12.5568 21.125 12.1875 21.125C11.4416 21.125 10.7262 21.4213 10.1988 21.9488C9.67132 22.4762 9.375 23.1916 9.375 23.9375C9.375 24.6834 9.67132 25.3988 10.1988 25.9262C10.7262 26.4537 11.4416 26.75 12.1875 26.75ZM12.1875 24.875C11.9389 24.875 11.7004 24.7762 11.5246 24.6004C11.3488 24.4246 11.25 24.1861 11.25 23.9375C11.25 23.6889 11.3488 23.4504 11.5246 23.2746C11.7004 23.0988 11.9389 23 12.1875 23C12.4361 23 12.6746 23.0988 12.8504 23.2746C13.0262 23.4504 13.125 23.6889 13.125 23.9375C13.125 24.1861 13.0262 24.4246 12.8504 24.6004C12.6746 24.7762 12.4361 24.875 12.1875 24.875ZM19.6875 26.75C20.0568 26.75 20.4226 26.6773 20.7638 26.5359C21.105 26.3946 21.4151 26.1874 21.6762 25.9262C21.9374 25.6651 22.1446 25.355 22.2859 25.0138C22.4273 24.6726 22.5 24.3068 22.5 23.9375C22.5 23.5682 22.4273 23.2024 22.2859 22.8612C22.1446 22.52 21.9374 22.2099 21.6762 21.9488C21.4151 21.6876 21.105 21.4804 20.7638 21.3391C20.4226 21.1977 20.0568 21.125 19.6875 21.125C18.9416 21.125 18.2262 21.4213 17.6988 21.9488C17.1713 22.4762 16.875 23.1916 16.875 23.9375C16.875 24.6834 17.1713 25.3988 17.6988 25.9262C18.2262 26.4537 18.9416 26.75 19.6875 26.75ZM19.6875 24.875C19.4389 24.875 19.2004 24.7762 19.0246 24.6004C18.8488 24.4246 18.75 24.1861 18.75 23.9375C18.75 23.6889 18.8488 23.4504 19.0246 23.2746C19.2004 23.0988 19.4389 23 19.6875 23C19.9361 23 20.1746 23.0988 20.3504 23.2746C20.5262 23.4504 20.625 23.6889 20.625 23.9375C20.625 24.1861 20.5262 24.4246 20.3504 24.6004C20.1746 24.7762 19.9361 24.875 19.6875 24.875Z" fill="black"/>
</svg>
