<?xml version="1.0" encoding="UTF-8"?>
<svg version="1.1" xmlns="http://www.w3.org/2000/svg" width="512" height="512">
<path d="M0 0 C0.89847656 0.18723633 1.79695312 0.37447266 2.72265625 0.56738281 C49.96904842 10.75950691 94.42930613 36.04182376 130.83984375 67.3125 C133.71564778 69.77622502 136.66293803 72.14046272 139.625 74.5 C155.85238775 87.74879235 155.85238775 87.74879235 158 95 C158.11790832 100.30587454 155.72567422 103.03923151 152.27734375 106.734375 C144.79755392 114.17567534 136.91901673 121.13348216 128.65087891 127.68798828 C127.45939599 128.6349018 126.27207492 129.58706033 125.08740234 130.54248047 C72.26074123 173.10453982 5.91756813 202.64043702 -63.0625 196.5390625 C-107.07605675 191.75662398 -149.72168534 174.02564759 -186 149 C-186.68964844 148.53271484 -187.37929687 148.06542969 -188.08984375 147.58398438 C-202.15857965 138.04563958 -215.34115896 127.44944586 -227.859375 115.953125 C-229.97276336 114.02485095 -232.13483204 112.16755049 -234.3125 110.3125 C-242.20801527 103.3759542 -242.20801527 103.3759542 -244 98 C-244 92.34893185 -240.91129967 88.55216185 -237.02954102 84.66381836 C-236.52479248 84.1766333 -236.02004395 83.68944824 -235.5 83.1875 C-234.96882568 82.66615479 -234.43765137 82.14480957 -233.89038086 81.60766602 C-229.72559794 77.57521621 -225.35626383 73.85926167 -220.8125 70.2578125 C-218.35742261 68.28693093 -215.98486752 66.24757079 -213.62011719 64.17016602 C-199.36137684 51.74181883 -183.29309741 41.53067989 -167 32 C-166.29762207 31.58298828 -165.59524414 31.16597656 -164.87158203 30.73632812 C-139.39577131 15.67523089 -111.13546058 4.47773026 -82 -1 C-81.23880859 -1.14808105 -80.47761719 -1.29616211 -79.69335938 -1.44873047 C-53.51511107 -6.34004034 -25.99017773 -5.43382638 0 0 Z M-209 86 C-209.95519531 86.80824219 -210.91039062 87.61648438 -211.89453125 88.44921875 C-212.81621094 89.24972656 -213.73789063 90.05023438 -214.6875 90.875 C-215.93080078 91.95394531 -215.93080078 91.95394531 -217.19921875 93.0546875 C-219.33965994 94.9251113 -219.33965994 94.9251113 -219 98 C-178.96580659 141.79250544 -111.96527339 174.36121502 -53.109375 177.875 C17.88149076 180.72890415 83.07404063 143.71840147 134 97 C116.45153887 74.43769284 86.96639206 57.20356033 62 44 C61.35885254 43.6601709 60.71770508 43.3203418 60.05712891 42.97021484 C-26.33608915 -2.40738349 -113.66348672 13.96624461 -209 86 Z " fill="#ffffff" transform="translate(299,215)"/>
<path d="M0 0 C2.85200963 2.26193867 3.89598886 5.01117075 4.8125 8.4375 C5.21803259 12.8978845 5.16169281 17.33303044 5.10546875 21.80859375 C5.10122391 23.08605972 5.09697906 24.3635257 5.09260559 25.67970276 C5.0787045 29.05498297 5.0518115 32.42964052 5.01849365 35.80474854 C4.98765321 39.25714779 4.9740706 42.7096117 4.95898438 46.16210938 C4.92597325 52.92074326 4.87581661 59.67908573 4.8125 66.4375 C5.90408165 66.51512321 5.90408165 66.51512321 7.01771545 66.59431458 C10.3780294 66.83580546 13.7378275 67.08388473 17.09765625 67.33203125 C18.24190063 67.41328247 19.38614502 67.49453369 20.56506348 67.57824707 C48.12463536 69.63507738 74.99592479 76.75260462 100.8125 86.4375 C101.02132813 85.66535156 101.23015625 84.89320313 101.4453125 84.09765625 C103.33439249 79.04031924 105.99400582 74.54325501 108.6875 69.875 C109.86072118 67.82684818 111.03389719 65.77867047 112.20703125 63.73046875 C112.80467285 62.69067871 113.40231445 61.65088867 114.01806641 60.57958984 C115.76610423 57.51873993 117.4869089 54.44423489 119.19921875 51.36328125 C119.73369629 50.4081665 120.26817383 49.45305176 120.81884766 48.46899414 C121.83648761 46.65004653 122.84814123 44.82773346 123.85302734 43.00170898 C124.5464624 41.77109741 124.5464624 41.77109741 125.25390625 40.515625 C125.65295166 39.79793945 126.05199707 39.08025391 126.46313477 38.34082031 C128.72746158 35.14691913 131.0214623 33.67312825 134.75 32.5625 C138.44885427 32.41152636 139.88853644 33.24452733 142.8125 35.4375 C145.66402578 38.28902578 145.58898834 40.46395942 145.8125 44.4375 C144.8359375 47.375 144.8359375 47.375 143.1875 50.4375 C142.73020508 51.30169556 142.73020508 51.30169556 142.26367188 52.18334961 C141.13870012 54.28299215 139.97895435 56.3606099 138.8125 58.4375 C138.0704834 59.76418701 138.0704834 59.76418701 137.31347656 61.11767578 C134.53638541 66.07102093 131.73796076 71.01181512 128.92578125 75.9453125 C125.44950707 82.0547464 122.09362609 88.22125748 118.8125 94.4375 C119.9675 94.7675 121.1225 95.0975 122.3125 95.4375 C129.02397543 97.68855387 135.2200461 100.99548776 141.48925781 104.24121094 C143.89886356 105.48197052 146.31973989 106.69858879 148.7421875 107.9140625 C165.60541399 116.46172547 181.39838355 126.50842747 196.8125 137.4375 C199.83306332 136.08712051 201.89401193 134.59107018 204.20068359 132.22875977 C204.84170013 131.57790909 205.48271667 130.92705841 206.14315796 130.25648499 C206.82552521 129.554384 207.50789246 128.85228302 208.2109375 128.12890625 C209.67435758 126.64506237 211.13790316 125.16134225 212.6015625 123.67773438 C214.89712821 121.33870321 217.19017112 118.99726603 219.48046875 116.65307617 C221.69662571 114.38852421 223.92200355 112.13334832 226.1484375 109.87890625 C227.16591568 108.82879112 227.16591568 108.82879112 228.20394897 107.75746155 C231.7957198 104.12861463 234.93873936 101.26635118 239.8125 99.4375 C243.65047545 99.50367199 245.98014866 99.92528379 249.25 101.9375 C251.68610327 105.83526524 251.75812448 108.99022098 250.8125 113.4375 C245.34377337 122.03121328 236.08268102 129.2760053 228.875 136.4375 C227.50953255 137.79794318 226.14429614 139.15861831 224.77929688 140.51953125 C221.45969114 143.8282031 218.13696727 147.13371322 214.8125 150.4375 C216.38485826 151.85738945 217.95791189 153.27650887 219.53125 154.6953125 C220.40716797 155.48566895 221.28308594 156.27602539 222.18554688 157.09033203 C225.15993116 159.74792781 228.17728969 162.34943224 231.21875 164.9296875 C234.11048215 167.66549292 234.80058311 169.3319504 235.25 173.3125 C235.16105052 176.76246921 234.8191503 177.4285696 232.625 180.375 C229.75766387 182.47771316 228.33644176 183.34940146 224.8125 183.4375 C220.00844496 182.06729995 216.85373873 179.04377632 213.25 175.75 C192.50154292 157.33425565 169.1000505 141.77415728 144.8125 128.4375 C143.92868652 127.95039551 143.04487305 127.46329102 142.13427734 126.96142578 C72.1884873 88.70079594 -5.66939736 75.50790985 -83.03125 97.32421875 C-134.80781477 112.5006938 -185.92707139 140.23044109 -225.1875 177.4375 C-231.66691889 183.4375 -231.66691889 183.4375 -236.1875 183.4375 C-240.78588972 182.1689787 -242.68026065 181.21327784 -245.3125 177.1875 C-246.19111245 173.42201808 -246.19329986 171.60618834 -244.38671875 168.18359375 C-239.69736123 161.35576701 -232.66074628 156.45198656 -226.1875 151.4375 C-227.52958291 148.44656654 -229.00725862 146.37560219 -231.33618164 144.07763672 C-231.97346695 143.44373016 -232.61075226 142.80982361 -233.26734924 142.15670776 C-233.95385056 141.48366608 -234.64035187 140.81062439 -235.34765625 140.1171875 C-236.05272812 139.4173172 -236.75779999 138.7174469 -237.48423767 137.99636841 C-239.7347953 135.76361018 -241.99192896 133.53765735 -244.25 131.3125 C-246.51075698 129.07933957 -248.77005022 126.84474714 -251.026474 124.60720825 C-252.43045051 123.21551112 -253.83709108 121.82649556 -255.24659729 120.44039917 C-255.88073044 119.81279694 -256.51486359 119.1851947 -257.16821289 118.53857422 C-257.72843643 117.9866037 -258.28865997 117.43463318 -258.86585999 116.86593628 C-261.73880826 113.76083693 -261.52597653 110.67824016 -261.4609375 106.6328125 C-261.1875 104.4375 -261.1875 104.4375 -259.625 101.9375 C-256.30605975 99.89507523 -254.09549394 99.4375 -250.1875 99.4375 C-244.03919017 102.31953479 -239.78032758 106.44854964 -235.06640625 111.265625 C-233.94926491 112.38913361 -233.94926491 112.38913361 -232.80955505 113.53533936 C-230.44918953 115.9124013 -228.0995127 118.29971535 -225.75 120.6875 C-224.14457658 122.30798186 -222.53846376 123.92778104 -220.93164062 125.546875 C-217.0089141 129.50255085 -213.09489375 133.46668092 -209.1875 137.4375 C-205.40922034 135.30468274 -201.67912995 133.18534951 -198.09375 130.73828125 C-197.0267688 130.01547974 -197.0267688 130.01547974 -195.93823242 129.27807617 C-195.19549072 128.77381104 -194.45274902 128.2695459 -193.6875 127.75 C-173.44612673 114.19362545 -151.98188151 103.26379679 -130.1875 92.4375 C-132.09961169 88.8725381 -134.01749098 85.31071454 -135.9375 81.75 C-136.51790039 80.67250488 -137.09830078 79.59500977 -137.69628906 78.48486328 C-140.62469905 73.07436025 -143.59092535 67.69521937 -146.6875 62.37890625 C-147.23438477 61.43942139 -147.78126953 60.49993652 -148.34472656 59.53198242 C-149.38537413 57.75519314 -150.43388589 55.98298021 -151.49121094 54.21606445 C-153.97556772 49.97442799 -155.94398453 46.46761646 -156.1875 41.4375 C-155.23331034 38.0183204 -154.06542852 35.5692989 -151.1875 33.4375 C-147.84285533 32.13680485 -146.18907529 32.43707805 -142.6875 33.375 C-139.83879227 34.74638833 -138.4971633 36.11206679 -136.890625 38.81640625 C-136.25060547 39.88870483 -136.25060547 39.88870483 -135.59765625 40.98266602 C-132.8412339 45.78111246 -130.1256703 50.60048229 -127.4375 55.4375 C-126.2006425 57.65501578 -124.96366316 59.87246361 -123.7265625 62.08984375 C-123.12618164 63.16733887 -122.52580078 64.24483398 -121.90722656 65.35498047 C-119.55248752 69.57572652 -117.18442855 73.78889647 -114.8125 78 C-114.43770508 78.66580078 -114.06291016 79.33160156 -113.67675781 80.01757812 C-112.8472462 81.49102112 -112.01741796 82.96428585 -111.1875 84.4375 C-104.81482807 82.96090528 -98.55446398 81.26882935 -92.30810547 79.33374023 C-77.12080534 74.64026722 -61.8118247 70.92271537 -46.0625 68.6875 C-44.86778076 68.51408081 -44.86778076 68.51408081 -43.64892578 68.3371582 C-34.21401978 67.1085868 -24.68534404 66.85332832 -15.1875 66.4375 C-15.19749275 65.37087379 -15.19749275 65.37087379 -15.20768738 64.28269958 C-15.26796413 57.55964508 -15.31355818 50.83666673 -15.34293652 44.11340237 C-15.35854837 40.65743354 -15.37970356 37.20168925 -15.41381836 33.74584961 C-15.45284939 29.76679228 -15.46724632 25.78782378 -15.48046875 21.80859375 C-15.49595261 20.57604355 -15.51143646 19.34349335 -15.52738953 18.07359314 C-15.52861998 11.77083209 -15.37985641 6.94997093 -12.1875 1.4375 C-8.59277262 -1.41349068 -4.29814274 -1.1052367 0 0 Z " fill="#ffffff" transform="translate(261.1875,100.5625)"/>
<path d="M0 0 C0.72960937 0.54398438 1.45921875 1.08796875 2.2109375 1.6484375 C16.56198483 13.27675648 25.83833962 31.84205285 28 50 C28.84028739 62.27769234 27.74154507 73.29300531 24 85 C23.72285156 85.91007812 23.44570313 86.82015625 23.16015625 87.7578125 C16.9390194 105.58982689 1.77206846 119.7808369 -14.81542969 127.88720703 C-32.91239245 136.30054095 -53.37101257 137.05041488 -72.25 130.8125 C-91.3279461 123.37643692 -107.0581879 109.53631122 -116 91 C-124.15707289 70.85270153 -124.77414878 49.04756484 -116.33984375 28.9140625 C-108.05447984 10.44515342 -93.86937032 -3.33066485 -75 -11 C-48.70611148 -19.849723 -22.43374584 -16.74449617 0 0 Z M-87.75 20.375 C-98.66451937 31.98128468 -103.38778031 46.48806188 -103.20703125 62.24609375 C-102.31441972 78.43099344 -95.00385706 92.20661592 -83 103 C-69.58812726 113.23991312 -54.60458678 116.84962486 -38 115 C-33.46056462 114.07416302 -29.28461571 112.7503111 -25 111 C-24.26652344 110.71125 -23.53304687 110.4225 -22.77734375 110.125 C-10.12480791 104.49047112 -0.28921904 93.49129716 4.96875 80.84375 C10.33829483 66.03682336 10.85696862 51.30660175 4.55859375 36.64453125 C-2.80684029 22.06746574 -13.63430509 11.97685479 -28.83203125 6 C-50.28557985 -0.77202027 -71.59269399 5.10157287 -87.75 20.375 Z " fill="#ffffff" transform="translate(303,252)"/>
<path d="M0 0 C1.9375 0.453125 1.9375 0.453125 4.9375 2.078125 C8.62820525 8.30619011 7.84127118 15.56539424 6.23828125 22.4609375 C1.69957977 35.90468617 -6.71235193 46.91528343 -19.515625 53.453125 C-27.72717178 56.67729061 -36.40477552 58.54773576 -45.0625 56.453125 C-48.12029929 54.38911048 -48.86165246 53.06905746 -50 49.578125 C-50.07744522 45.70586413 -49.12769782 43.69843586 -47.0625 40.453125 C-43.53832787 38.10367691 -40.97809817 37.81691235 -36.8125 37.140625 C-30.72111427 36.06584579 -26.76088922 34.49592503 -22.0625 30.453125 C-21.4025 30.453125 -20.7425 30.453125 -20.0625 30.453125 C-19.815 29.9375 -19.5675 29.421875 -19.3125 28.890625 C-18.0625 26.453125 -18.0625 26.453125 -16.125 23.578125 C-13.42064671 19.00458635 -12.87756432 13.9424172 -12.06640625 8.7578125 C-10.15091644 2.452348 -6.44102443 -0.53675204 0 0 Z " fill="#ffffff" transform="translate(296.0625,301.546875)"/>
</svg>
