
<svg xmlns="http://www.w3.org/2000/svg" width="22" height="23" viewBox="0 0 22 23" fill="none">
<path d="M16.1562 1.875C16.9655 1.875 17.7246 2.02897 18.4336 2.33691C19.1426 2.64486 19.762 3.06022 20.292 3.58301C20.8219 4.10579 21.2373 4.72526 21.5381 5.44141C21.8389 6.15755 21.9928 6.91667 22 7.71875C22 8.49935 21.8532 9.24772 21.5596 9.96387C21.266 10.68 20.8434 11.3102 20.292 11.8545L11 21.1357L1.70801 11.8545C1.16374 11.3102 0.744792 10.68 0.451172 9.96387C0.157552 9.24772 0.00716146 8.49935 0 7.71875C0 6.91667 0.150391 6.16113 0.451172 5.45215C0.751953 4.74316 1.1709 4.1237 1.70801 3.59375C2.24512 3.0638 2.86458 2.64486 3.56641 2.33691C4.26823 2.02897 5.02734 1.875 5.84375 1.875C6.43815 1.875 6.9681 1.94303 7.43359 2.0791C7.89909 2.21517 8.32878 2.40137 8.72266 2.6377C9.11654 2.87402 9.49609 3.16406 9.86133 3.50781C10.2266 3.85156 10.6061 4.22038 11 4.61426C11.3939 4.21322 11.7699 3.8444 12.1279 3.50781C12.486 3.17122 12.8656 2.88477 13.2666 2.64844C13.6676 2.41211 14.1009 2.22233 14.5664 2.0791C15.0319 1.93587 15.5618 1.86784 16.1562 1.875ZM19.3145 10.877C19.737 10.4544 20.0592 9.97103 20.2812 9.42676C20.5033 8.88249 20.6143 8.31315 20.6143 7.71875C20.6143 7.0957 20.4997 6.51562 20.2705 5.97852C20.0413 5.44141 19.7262 4.97233 19.3252 4.57129C18.9242 4.17025 18.4515 3.85872 17.9072 3.63672C17.363 3.41471 16.7793 3.30013 16.1562 3.29297C15.5547 3.29297 15.0212 3.38607 14.5557 3.57227C14.0902 3.75846 13.6605 4.00911 13.2666 4.32422C12.8727 4.63932 12.4967 4.98665 12.1387 5.36621C11.7806 5.74577 11.401 6.14323 11 6.55859C10.6133 6.17188 10.2373 5.78158 9.87207 5.3877C9.50684 4.99382 9.12728 4.63932 8.7334 4.32422C8.33952 4.00911 7.90625 3.7513 7.43359 3.55078C6.96094 3.35026 6.43099 3.25 5.84375 3.25C5.22786 3.25 4.64779 3.36458 4.10352 3.59375C3.55924 3.82292 3.08659 4.1416 2.68555 4.54981C2.28451 4.95801 1.96582 5.43425 1.72949 5.97852C1.49316 6.52279 1.375 7.10286 1.375 7.71875C1.375 8.31315 1.486 8.88249 1.70801 9.42676C1.93001 9.97103 2.25586 10.4544 2.68555 10.877L11 19.1914L19.3145 10.877Z" fill="black"/>
</svg>
